<svg width="804" height="1024" viewBox="0 0 804 1024" fill="none" xmlns="http://www.w3.org/2000/svg">
<path d="M110 748.491C110 444.429 243.953 216.644 258.679 192.521C259.591 191.027 260.324 189.59 260.99 187.971L306.84 76.5809C311.468 65.3381 322.424 58 334.582 58L431.146 58L773.148 58C793.401 58 807.834 77.655 801.772 96.9793L786.074 147.023L768.347 253.291C768.154 254.446 768.034 255.51 767.971 256.679C766.958 275.511 756.388 455.438 705.296 810.76C704.104 819.052 699.469 826.602 692.559 831.34L633.807 871.63C630.543 873.868 626.87 875.439 622.997 876.251L541.391 893.362C539.366 893.786 537.303 894 535.234 894H431.146L307.282 882.703L239.704 875.314C237.916 875.119 236.15 874.763 234.426 874.251L196.377 862.955C194.052 862.265 191.819 861.295 189.728 860.067L155.259 839.833C152.137 838.001 149.373 835.618 147.099 832.8L123.229 803.217C121.033 800.495 119.329 797.41 118.196 794.102L111.62 774.909C110.547 771.779 110 768.493 110 765.185V748.491Z" fill="#F89241" stroke="#FF7200"/>
<path d="M1 833.493C1 418.826 176.795 109.205 192.854 81.7872C193.714 80.3185 194.337 79.0126 194.959 77.428L256.693 -79.9549C261.199 -91.4432 272.281 -99 284.621 -99L414.294 -99L866.72 -99C886.804 -99 901.216 -79.65 895.464 -60.4077L871.061 21.2232L848.138 165.422C847.963 166.525 847.858 167.458 847.802 168.573C846.74 189.666 833.47 434.245 766.439 922.446C765.322 930.58 760.892 938.055 754.227 942.851L673.769 1000.75C670.453 1003.14 666.683 1004.82 662.693 1005.7L555.437 1029.3C553.319 1029.77 551.158 1030 548.99 1030H414.294L254.889 1014.74L167.269 1004.69C165.402 1004.48 163.56 1004.09 161.765 1003.53L111.257 987.792C108.866 987.048 106.578 986.006 104.446 984.693L57.859 955.995C54.7582 954.085 52.0311 951.626 49.8111 948.739L16.8905 905.924C14.8136 903.223 13.212 900.188 12.1545 896.949L2.48162 867.324C1.50005 864.317 1 861.175 1 858.012L1 833.493Z" fill="#F89241" fill-opacity="0.5" stroke="#F89241"/>
</svg>
