<svg width="30" height="30" viewBox="0 0 30 30" fill="none" xmlns="http://www.w3.org/2000/svg">
<path d="M19.3752 17.5H18.3877L18.0377 17.1625C19.2627 15.7375 20.0002 13.8875 20.0002 11.875C20.0002 7.3875 16.3627 3.75 11.8752 3.75C7.38774 3.75 3.75024 7.3875 3.75024 11.875C3.75024 16.3625 7.38774 20 11.8752 20C13.8877 20 15.7377 19.2625 17.1627 18.0375L17.5002 18.3875V19.375L23.7502 25.6125L25.6127 23.75L19.3752 17.5ZM11.8752 17.5C8.76274 17.5 6.25024 14.9875 6.25024 11.875C6.25024 8.7625 8.76274 6.25 11.8752 6.25C14.9877 6.25 17.5002 8.7625 17.5002 11.875C17.5002 14.9875 14.9877 17.5 11.8752 17.5Z" fill="black"/>
</svg>
